<?xml version="1.0" standalone="no"?>
<!DOCTYPE svg PUBLIC "-//W3C//DTD SVG 20010904//EN"
 "http://www.w3.org/TR/2001/REC-SVG-20010904/DTD/svg10.dtd">
<svg version="1.0" xmlns="http://www.w3.org/2000/svg"
 width="50.000000pt" height="50.000000pt" viewBox="0 0 50.000000 50.000000"
 preserveAspectRatio="xMidYMid meet">

<g transform="translate(0.000000,50.000000) scale(0.100000,-0.100000)"
fill="#000000" stroke="none">
<path d="M451 478 c-5 -13 -31 -80 -58 -150 -47 -122 -51 -129 -97 -159 -58
-39 -85 -87 -70 -127 l10 -27 -82 3 c-95 4 -83 -14 -109 157 -8 55 -18 110
-20 123 -5 20 -2 22 34 22 39 0 53 -10 87 -66 9 -15 15 -16 24 -7 10 9 6 18
-18 43 -17 17 -52 58 -78 90 -26 33 -51 60 -55 60 -14 0 -11 -12 7 -32 14 -14
14 -20 4 -33 -16 -19 -5 -32 13 -16 11 9 17 8 27 -4 11 -13 7 -15 -29 -15 -22
0 -41 -3 -41 -7 0 -5 11 -79 25 -166 14 -87 25 -160 25 -162 0 -2 101 -4 225
-4 124 0 225 4 225 8 0 5 -13 14 -30 19 -41 15 -80 56 -80 86 0 14 25 102 55
196 31 94 53 175 50 180 -11 18 -35 11 -44 -12z m-19 -146 c-27 -82 -52 -142
-59 -142 -9 0 -7 15 8 53 11 28 37 94 56 145 20 51 37 91 39 89 2 -2 -18 -67
-44 -145z m-62 -198 c0 -41 14 -72 44 -96 21 -18 21 -18 -9 -18 -35 0 -55 15
-55 41 0 10 -5 21 -11 25 -8 5 -10 -4 -7 -30 3 -28 1 -36 -10 -34 -29 6 -38
36 -20 68 9 16 13 32 8 35 -11 7 -40 -47 -40 -75 0 -23 -18 -27 -26 -5 -12 29
7 65 48 95 57 41 78 40 78 -6z"/>
<path d="M125 450 c-25 -9 -50 -38 -42 -46 3 -4 18 3 33 15 37 29 68 26 97 -9
14 -16 29 -30 33 -30 4 0 16 -7 26 -17 10 -9 21 -14 24 -10 3 3 -3 14 -14 24
-96 88 -107 94 -157 73z"/>
<path d="M135 330 c3 -5 42 -10 87 -10 65 0 79 -3 75 -14 -3 -8 -9 -43 -13
-77 -8 -74 10 -76 20 -2 4 27 10 63 13 81 l5 32 -96 0 c-62 0 -95 -4 -91 -10z"/>
</g>
</svg>

