<?xml version="1.0" standalone="no"?>
<!DOCTYPE svg PUBLIC "-//W3C//DTD SVG 20010904//EN"
 "http://www.w3.org/TR/2001/REC-SVG-20010904/DTD/svg10.dtd">
<svg version="1.0" xmlns="http://www.w3.org/2000/svg"
 width="50.000000pt" height="50.000000pt" viewBox="0 0 50.000000 50.000000"
 preserveAspectRatio="xMidYMid meet">

<g transform="translate(0.000000,50.000000) scale(0.100000,-0.100000)"
fill="#000000" stroke="none">
<path d="M187 376 c-32 -67 -57 -126 -57 -130 0 -3 27 -6 61 -6 33 0 59 -3 57
-7 -42 -89 -53 -103 -80 -103 -15 0 -28 -3 -28 -7 0 -17 33 -123 39 -123 9 0
146 110 149 121 2 5 -8 9 -23 9 l-27 0 46 84 c25 46 46 87 46 90 0 3 -27 6
-60 6 -33 0 -60 2 -60 4 0 2 18 42 40 89 22 47 40 88 40 91 0 3 -20 6 -43 6
l-44 0 -56 -124z m113 100 c0 -2 -18 -42 -40 -89 -22 -47 -40 -88 -40 -91 0
-3 27 -6 61 -6 l61 0 -46 -84 c-25 -46 -46 -87 -46 -90 0 -3 8 -6 18 -6 12 -1
3 -13 -28 -40 -25 -22 -47 -40 -50 -40 -3 0 -11 18 -17 40 -10 38 -9 40 11 40
17 0 31 17 59 69 20 37 37 71 37 75 0 3 -27 6 -61 6 -70 0 -70 -14 -6 127 35
77 46 93 65 93 12 0 22 -2 22 -4z"/>
</g>
</svg>
