<?xml version="1.0" encoding="UTF-8"?>
<svg version="1.1" xmlns="http://www.w3.org/2000/svg" width="50" height="50">
<path d="M0 0 C4.62 0 9.24 0 14 0 C13.96744792 2.31119792 13.93489583 4.62239583 13.90234375 6.93359375 C13.76732652 8.99163938 13.76732652 8.99163938 15 10 C16.54089652 10.048724 18.08376243 10.03637139 19.625 10 C24.38577126 9.96884312 29.11960047 10.07473002 33.875 10.3125 C35.10992187 10.37050781 36.34484375 10.42851562 37.6171875 10.48828125 C42.28233132 11.19397853 44.81192595 12.52343115 47.76953125 16.19921875 C49.31822053 19.72433054 49.56052421 23.02136581 49.6875 26.8125 C49.72166016 27.50537109 49.75582031 28.19824219 49.79101562 28.91210938 C49.87286344 30.60752849 49.93812365 32.30373458 50 34 C47.525 34.495 47.525 34.495 45 35 C45.495 35.845625 45.99 36.69125 46.5 37.5625 C48.16582799 41.38002248 48.39625803 43.87891648 48 48 C46 50 46 50 43 50.25 C40 50 40 50 38 48 C37.49557547 42.75398486 38.35035011 39.52648522 41 35 C38.03 34.505 38.03 34.505 35 34 C35 33.34 35 32.68 35 32 C35.66 32 36.32 32 37 32 C36.505 27.545 36.505 27.545 36 23 C34.96166016 23.12568359 34.96166016 23.12568359 33.90234375 23.25390625 C11.15173761 25.62188765 11.15173761 25.62188765 4 20 C0.79540066 16.01724189 0.47825644 12.13651378 0.3125 7.1875 C0.27833984 6.49462891 0.24417969 5.80175781 0.20898438 5.08789062 C0.12713656 3.39247151 0.06187635 1.69626542 0 0 Z M3 2 C2.68621821 7.96185398 3.10973516 11.73558904 6 17 C9.95179246 20.82431528 13.92454293 21.1325718 19.25 21.0625 C20.14203125 21.05347656 21.0340625 21.04445313 21.953125 21.03515625 C22.62859375 21.02355469 23.3040625 21.01195313 24 21 C24 18.36 24 15.72 24 13 C19.71 13 15.42 13 11 13 C11 9.37 11 5.74 11 2 C8.36 2 5.72 2 3 2 Z M26 13 C26 15.64 26 18.28 26 21 C30.29 21 34.58 21 39 21 C39 24.63 39 28.26 39 32 C41.64 32 44.28 32 47 32 C47.31378179 26.03814602 46.89026484 22.26441096 44 17 C40.04820754 13.17568472 36.07545707 12.8674282 30.75 12.9375 C29.41195313 12.95103516 29.41195313 12.95103516 28.046875 12.96484375 C27.37140625 12.97644531 26.6959375 12.98804688 26 13 Z M42 40 C41.67 42.31 41.34 44.62 41 47 C42.32 47 43.64 47 45 47 C44.67 44.69 44.34 42.38 44 40 C43.34 40 42.68 40 42 40 Z " fill="#000000" transform="translate(0,0)"/>
</svg>
