<?xml version="1.0" standalone="no"?>
<!DOCTYPE svg PUBLIC "-//W3C//DTD SVG 20010904//EN"
 "http://www.w3.org/TR/2001/REC-SVG-20010904/DTD/svg10.dtd">
<svg version="1.0" xmlns="http://www.w3.org/2000/svg"
 width="50.000000pt" height="50.000000pt" viewBox="0 0 50.000000 50.000000"
 preserveAspectRatio="xMidYMid meet">

<g transform="translate(0.000000,50.000000) scale(0.100000,-0.100000)"
fill="#000000" stroke="none">
<path d="M16 481 c-17 -18 -16 -21 8 -60 15 -23 34 -41 44 -41 10 0 44 -27 77
-60 43 -44 60 -68 60 -88 0 -19 8 -30 28 -40 15 -7 27 -19 27 -25 0 -23 154
-167 178 -167 29 0 62 34 62 63 0 24 -145 177 -167 177 -7 0 -18 12 -25 27
-10 20 -21 28 -40 28 -20 0 -44 17 -88 60 -33 33 -60 67 -60 77 0 10 -18 29
-40 43 -47 30 -43 29 -64 6z m65 -31 c13 -10 20 -19 14 -20 -5 0 24 -34 65
-75 41 -41 71 -78 67 -82 -4 -4 -41 26 -82 67 -41 41 -75 70 -75 65 -1 -15
-40 35 -40 51 0 20 24 17 51 -6z m209 -188 c0 -22 19 -42 40 -42 23 0 150
-134 150 -157 0 -24 -19 -43 -43 -43 -23 0 -157 127 -157 150 0 21 -20 40 -42
40 -24 0 -23 19 4 47 26 28 48 30 48 5z"/>
<path d="M310 182 c0 -14 109 -116 117 -109 4 4 -18 32 -47 62 -52 52 -70 65
-70 47z"/>
<path d="M318 479 c-46 -24 -62 -52 -55 -95 3 -19 1 -36 -4 -39 -5 -4 -9 -14
-9 -23 0 -15 2 -15 18 1 11 12 17 33 17 64 0 49 21 73 75 88 l25 7 -22 -24
c-31 -33 -29 -48 10 -86 39 -38 53 -39 85 -9 l24 22 -7 -25 c-3 -14 -15 -36
-25 -50 -16 -22 -24 -25 -69 -22 -36 2 -51 -1 -51 -10 0 -9 18 -14 50 -16 42
-2 54 1 74 21 28 28 52 98 42 123 -6 15 -11 13 -41 -16 l-35 -34 -32 32 -32
32 32 33 c18 18 29 36 26 40 -13 13 -59 6 -96 -14z"/>
<path d="M150 225 c-15 -15 -34 -25 -52 -25 -40 0 -65 -15 -83 -50 -24 -47
-19 -78 20 -117 32 -32 39 -35 78 -30 51 7 87 44 87 89 0 19 9 41 22 55 18 19
19 23 5 23 -23 0 -47 -39 -47 -76 0 -35 -37 -74 -71 -74 -48 0 -89 41 -89 91
0 29 44 69 77 69 32 0 68 22 83 51 15 27 -2 24 -30 -6z"/>
<path d="M83 153 c-14 -3 -25 -14 -29 -30 -12 -44 24 -81 68 -70 37 10 46 52
17 83 -12 13 -25 23 -28 23 -3 -1 -16 -4 -28 -6z m45 -26 c6 -7 9 -23 5 -36
-9 -34 -57 -26 -61 11 -3 25 3 30 39 37 4 0 11 -5 17 -12z"/>
</g>
</svg>

