<?xml version="1.0" standalone="no"?>
<!DOCTYPE svg PUBLIC "-//W3C//DTD SVG 20010904//EN"
 "http://www.w3.org/TR/2001/REC-SVG-20010904/DTD/svg10.dtd">
<svg version="1.0" xmlns="http://www.w3.org/2000/svg"
 width="50.000000pt" height="50.000000pt" viewBox="0 0 50.000000 50.000000"
 preserveAspectRatio="xMidYMid meet">

<g transform="translate(0.000000,50.000000) scale(0.100000,-0.100000)"
fill="#000000" stroke="none">
<path d="M5 357 c-3 -7 -4 -78 -3 -157 l3 -145 30 -3 c16 -2 39 -15 52 -28 28
-31 58 -31 87 0 18 21 33 25 84 27 55 2 64 0 86 -24 31 -33 60 -34 89 -3 12
13 31 25 42 27 17 4 20 13 23 75 3 70 2 72 -38 123 -40 50 -41 51 -95 51 -53
0 -54 0 -57 33 l-3 32 -148 3 c-115 2 -149 0 -152 -11z m285 -147 l0 -140 -46
0 c-37 0 -52 5 -70 25 -29 32 -59 32 -88 0 -13 -14 -33 -25 -45 -25 -20 0 -21
4 -21 140 l0 140 135 0 135 0 0 -140z m125 61 c3 -5 -9 -11 -27 -13 -32 -3
-33 -4 -33 -48 l0 -45 63 -3 62 -3 0 -44 c0 -52 -12 -57 -46 -20 -29 32 -59
32 -88 0 -13 -14 -26 -25 -30 -25 -3 0 -6 47 -6 105 l0 105 49 0 c28 0 52 -4
56 -9z m48 -61 l18 -30 -55 0 c-56 0 -56 0 -56 30 0 28 2 30 38 30 31 0 41 -5
55 -30z m-303 -125 c26 -32 -13 -81 -47 -59 -10 6 -19 19 -21 28 -8 38 43 61
68 31z m260 0 c15 -18 10 -45 -12 -59 -35 -22 -74 27 -48 59 16 19 44 19 60 0z"/>
</g>
</svg>

